<?xml version="1.0" encoding="UTF-8"?> <!-- Generator: Adobe Illustrator 25.4.1, SVG Export Plug-In . SVG Version: 6.00 Build 0) --> <svg xmlns="http://www.w3.org/2000/svg" xmlns:xlink="http://www.w3.org/1999/xlink" id="Layer_1" x="0px" y="0px" viewBox="0 0 1276.3 571.4" style="enable-background:new 0 0 1276.3 571.4;" xml:space="preserve"> <style type="text/css"> .st0{fill:#333333;} </style> <g id="Layer_2_00000067946039851037992140000012119975905571578507_"> <g id="Layer_1-2"> <path class="st0" d="M252.9,570.1l-18.7-29.3h-14.8v29.3h-9.2v-73.7h29.6c13.5,0,23.2,8.6,23.2,22.2c0,13.3-9.2,20.6-19.2,21.4 l19.9,30.1H252.9z M253.6,518.6c0-8.4-6.1-14-14.8-14h-19.4v28.2h19.4C247.5,532.7,253.6,526.9,253.6,518.6z M308.5,570.1v-73.7 h48.3v8.2h-39.1v23.8H356v8.2h-38.3v25.4h39.1v8.2L308.5,570.1z M397.9,559.7l5.5-7.1c5.8,6.7,14.2,10.6,23.1,10.6 c13.2,0,17.4-7.1,17.4-12.8c0-19-43.7-8.4-43.7-34.7c0-12.2,10.8-20.6,25.4-20.6c11.2,0,19.9,3.9,26.1,10.4l-5.5,6.7 c-5.5-6.2-13.3-8.8-21.3-8.8c-8.7,0-15.1,4.8-15.1,11.7c0,16.6,43.7,7.1,43.7,34.6c0,10.6-7.3,21.7-27.2,21.7 C413.5,571.4,404,566.5,397.9,559.7z M515.6,570.1v-65.5h-23.3v-8.2h55.9v8.2h-23.4v65.5H515.6z M585.4,533.3 c0-21.8,14.8-38.1,36.6-38.1s36.7,16.4,36.7,38.1s-14.9,38.1-36.7,38.1S585.4,555,585.4,533.3z M649.1,533.3 c0-17.2-10.7-30-27.2-30s-27.1,12.7-27.1,30s10.5,30,27.1,30S649.1,550.4,649.1,533.3z M746.5,570.1l-18.7-29.3H713v29.3h-9.2 v-73.7h29.6c13.5,0,23.2,8.6,23.2,22.2c0,13.3-9.2,20.6-19.2,21.4l19.9,30.1H746.5z M747.2,518.6c0-8.4-6.1-14-14.8-14H713v28.2 h19.3C741.1,532.7,747.2,526.9,747.2,518.6z M854.7,570.1l-6.5-16.5h-36.7l-6.5,16.5h-10.5l29.7-73.7h11.4l29.6,73.7H854.7z M809.7,487.3V482h40.1v5.3L809.7,487.3z M829.8,505.7l-15.6,39.8h31.3L829.8,505.7z M958,570.1l-43-58.8v58.8h-9.2v-73.7h9.4 l42.4,57.6v-57.6h9.2v73.7H958z M1010.6,559.7l5.5-7.1c5.8,6.7,14.2,10.6,23.1,10.6c13.2,0,17.4-7.1,17.4-12.8 c0-19-43.7-8.4-43.7-34.7c0-12.2,10.8-20.6,25.4-20.6c11.2,0,19.9,3.9,26.1,10.4l-5.5,6.7c-5.5-6.2-13.3-8.8-21.3-8.8 c-8.7,0-15.1,4.8-15.1,11.7c0,16.6,43.7,7.1,43.7,34.6c0,10.6-7.3,21.7-27.2,21.7C1026.2,571.4,1016.6,566.5,1010.6,559.7 L1010.6,559.7z M0,345v24.6c18.4,0,34.3-6.7,47.5-20.2c5.3-5.3,9.7-11.5,13.1-18.2c4.6-9.3,6.9-19.6,6.8-30V1.1H42.7v300.1 c0.2,11.6-4.3,22.8-12.6,31C21.7,340.7,11.6,345,0,345z M259.7,24.1C287,8,316.9,0,349.6,0c17.1-0.1,34.2,2.4,50.5,7.4 c16,4.5,31.2,11.3,45.2,20.2C471.3,44,492,65.9,507.6,93.5c15.9,27.6,23.8,57.7,23.8,90.5c0.1,17.5-2.4,34.9-7.3,51.7 c-4.4,16.1-11.1,31.5-19.9,45.7c-16.1,26.1-38.5,47.8-65.1,63c-27.2,16.1-57,24.1-89.4,24.1c-32.7,0-62.7-8-89.9-24.1 c-26.7-15.2-49-36.9-65.1-63c-8.8-14.2-15.5-29.6-19.9-45.8c-9.7-33.6-9.7-69.2,0-102.8c4.4-16.1,11.1-31.5,19.9-45.8 C210.7,61,233.1,39.3,259.7,24.1z M271.4,323.1c23.7,13.8,49.8,20.7,78.3,20.7c14.8,0,29.6-2.1,43.8-6.4 c13.7-4.2,26.8-10.1,38.9-17.8c22.4-13.8,40.4-32.7,54-56.7c13.6-23.7,20.4-50,20.4-78.9c0-15-2.1-30-6.3-44.4 c-3.8-13.9-9.5-27.2-17-39.4c-13.9-22.7-33.3-41.5-56.4-54.8c-23.3-13.8-49.1-20.7-77.3-20.7c-14.8-0.1-29.6,2.1-43.8,6.4 c-13.9,3.8-27.2,9.6-39.4,17.3c-22.4,14.1-40.4,33.2-54,57.2c-13.6,23.7-20.4,49.8-20.4,78.4c-0.1,15,2.1,30,6.3,44.4 c3.7,14.1,9.4,27.5,17,40C229.3,290.9,248.5,309.7,271.4,323.1L271.4,323.1z M629.2,369.7H654v-78.3h224.4v78.2h24.9V1.1h-24.9 v264.7H654V1.1h-24.8V369.7z M1002.2,369.7h24.8V73c110.9,131.9,194,230.7,249.2,296.7V1.1h-24.8v297.7 c-110.9-132.2-194-231.4-249.2-297.7V369.7z"></path> </g> </g> </svg> 